<?xml version="1.0" encoding="UTF-8" ?>
<!DOCTYPE svg PUBLIC "-//W3C//DTD SVG 1.1//EN" "http://www.w3.org/Graphics/SVG/1.1/DTD/svg11.dtd">
<svg width="894pt" height="411pt" viewBox="0 0 894 411" version="1.1" xmlns="http://www.w3.org/2000/svg">
<path fill="#fefefe" d=" M 0.00 0.00 L 894.00 0.00 L 894.00 411.00 L 0.00 411.00 L 0.00 0.00 Z" />
<path fill="#08438a" d=" M 188.64 73.01 C 194.84 67.68 203.31 67.51 210.99 66.51 C 220.86 66.21 231.06 66.04 240.43 69.62 C 242.56 70.79 244.39 72.72 245.34 74.96 C 245.96 79.57 244.83 84.10 243.70 88.53 C 241.54 105.90 238.73 123.17 235.96 140.44 C 234.15 149.17 234.07 158.19 234.46 167.07 C 234.53 171.25 237.70 174.65 241.23 176.48 C 246.38 177.93 251.56 175.82 255.35 172.33 C 265.80 162.45 275.16 151.49 285.48 141.46 C 292.38 134.70 298.44 127.13 305.45 120.48 C 311.46 114.81 316.97 108.57 323.63 103.63 C 326.35 101.82 330.20 102.35 332.68 104.37 C 340.42 110.38 346.91 117.98 351.37 126.73 C 354.09 132.43 358.67 138.19 357.06 144.90 C 354.61 149.67 349.73 152.54 345.35 155.35 C 337.21 160.03 329.66 165.66 321.47 170.27 C 309.92 175.96 299.00 182.80 287.59 188.74 C 280.27 193.04 272.47 196.56 265.57 201.52 C 260.54 205.03 260.31 213.05 264.88 217.04 C 266.78 219.19 269.12 221.29 272.15 221.42 C 278.19 221.97 284.32 221.30 290.32 222.53 C 299.10 224.29 308.09 223.15 316.97 223.56 C 327.33 223.96 337.69 224.38 348.01 225.38 C 354.32 225.82 360.73 226.10 366.82 227.96 C 369.99 228.84 372.65 231.68 372.84 235.04 C 373.34 240.50 371.50 245.78 370.81 251.14 C 368.50 261.84 365.29 273.35 356.99 281.03 C 355.53 282.83 353.11 282.65 351.07 282.26 C 340.86 279.14 331.92 273.17 322.43 268.44 C 308.39 260.21 294.43 251.84 280.40 243.61 C 274.92 240.24 269.16 235.10 262.26 236.46 C 257.51 238.95 253.05 244.18 254.46 249.87 C 255.98 254.55 258.71 258.70 261.01 263.01 C 264.95 270.72 270.71 277.26 275.76 284.23 C 284.15 295.16 292.75 305.92 301.26 316.75 C 303.68 320.11 307.04 323.54 306.44 328.04 C 306.92 330.95 304.40 332.79 302.59 334.60 C 294.52 341.87 284.76 347.11 274.48 350.51 C 269.01 352.72 262.93 352.80 257.16 352.10 C 250.56 347.68 250.46 339.17 248.25 332.33 C 246.81 325.17 245.68 317.93 243.59 310.92 C 242.09 301.85 241.17 292.69 239.55 283.65 C 239.02 275.31 237.62 266.97 234.75 259.11 C 232.91 255.17 230.04 250.21 225.06 250.39 C 221.40 250.23 217.69 250.14 214.07 250.75 C 206.58 253.52 201.63 260.38 198.42 267.40 C 192.60 278.16 189.41 290.06 184.42 301.20 C 181.08 309.87 177.66 318.51 175.03 327.43 C 172.54 333.18 170.96 339.34 167.86 344.80 C 166.06 347.44 163.58 350.61 160.01 350.34 C 155.93 350.07 152.15 348.23 148.65 346.25 C 140.02 340.69 130.71 335.92 123.50 328.47 C 120.45 325.21 116.14 321.95 116.36 317.02 C 115.95 313.57 117.93 310.52 120.07 308.03 C 127.02 300.31 134.03 292.59 141.93 285.82 C 148.20 279.75 154.62 273.83 161.47 268.42 C 167.59 262.54 173.44 256.38 179.54 250.47 C 182.69 247.53 185.20 243.46 184.61 238.98 C 185.27 234.21 181.32 230.72 177.82 228.22 C 174.92 226.55 171.53 224.91 168.11 225.83 C 158.98 228.29 150.48 232.54 141.60 235.71 C 134.91 238.13 128.42 241.04 121.84 243.70 C 111.17 247.18 100.98 252.10 90.06 254.76 C 84.05 255.09 76.92 258.77 71.63 254.43 C 67.07 247.37 67.97 238.34 64.92 230.64 C 63.97 222.13 64.45 213.47 64.78 204.92 C 64.63 200.91 67.46 197.31 71.08 195.91 C 77.38 195.13 83.75 195.80 90.05 196.26 C 96.42 196.03 102.59 197.98 108.97 197.75 C 129.94 199.35 150.81 204.35 171.94 202.36 C 178.30 200.23 177.86 190.59 172.80 187.21 C 166.30 182.83 159.16 179.50 152.36 175.64 C 140.33 169.88 128.91 162.98 117.07 156.89 C 108.49 152.44 100.80 146.55 92.62 141.45 C 88.70 139.03 84.35 136.83 81.69 132.91 C 81.10 130.33 81.23 127.62 81.60 125.02 C 84.97 116.58 92.28 110.79 98.44 104.44 C 103.54 99.57 108.22 94.04 114.42 90.52 C 116.94 90.25 120.17 89.69 121.96 91.98 C 124.80 94.84 127.68 97.64 130.47 100.56 C 149.34 123.01 165.90 147.26 182.98 171.08 C 185.87 175.02 189.45 180.02 194.98 179.54 C 200.97 180.21 205.39 174.95 207.52 169.98 C 207.77 166.20 208.11 162.20 206.58 158.62 C 203.76 150.95 202.56 142.81 199.78 135.13 C 197.31 125.41 193.69 115.93 192.46 105.93 C 191.56 101.23 190.38 96.59 189.17 91.97 C 188.16 85.72 187.93 79.31 188.64 73.01 Z" />
<path fill="#121212" d=" M 849.67 101.11 C 850.86 101.27 852.07 101.43 853.29 101.59 C 853.45 102.77 853.65 103.94 853.88 105.11 C 854.77 108.07 858.02 109.69 860.96 109.69 C 867.79 109.91 874.65 109.21 881.48 109.92 C 881.57 110.16 881.75 110.63 881.84 110.87 C 879.76 112.08 877.25 111.71 874.95 111.82 C 866.46 111.68 857.96 111.98 849.48 111.55 C 850.00 110.51 850.55 109.48 851.12 108.47 C 849.99 106.18 849.61 103.64 849.67 101.11 Z" />
<path fill="#8e98a4" d=" M 441.78 103.82 C 444.15 103.00 446.70 103.37 449.16 103.36 C 449.00 103.76 448.70 104.58 448.55 104.99 C 446.17 105.47 443.77 105.75 441.39 106.12 C 441.48 117.75 441.43 129.38 441.47 141.01 C 441.35 144.92 441.37 149.06 439.58 152.63 C 436.86 158.39 428.31 160.15 423.42 156.33 C 426.66 156.84 430.25 158.52 433.34 156.58 C 437.40 154.77 440.32 150.56 440.10 146.05 C 440.30 133.68 440.12 121.30 440.13 108.93 C 440.20 107.14 440.07 104.94 441.78 103.82 Z" />
<path fill="#121212" d=" M 482.97 103.41 C 485.36 103.41 487.74 103.45 490.13 103.59 C 496.33 119.66 504.31 135.00 510.97 150.88 C 512.93 155.33 515.73 159.53 516.45 164.42 C 513.87 164.54 511.29 164.53 508.71 164.52 C 507.08 160.14 504.70 156.08 503.20 151.64 C 502.53 150.28 501.76 148.97 501.01 147.66 C 492.33 147.50 483.64 147.49 474.96 147.56 C 473.19 147.41 471.63 148.12 470.57 149.52 C 467.77 154.37 466.09 159.76 463.31 164.62 C 460.97 164.55 458.63 164.50 456.29 164.38 C 456.69 161.54 457.56 158.81 459.07 156.36 C 467.31 138.84 474.79 120.96 482.97 103.41 Z" />
<path fill="#8e98a4" d=" M 568.59 106.26 C 569.15 102.14 574.20 103.47 577.08 103.43 C 576.94 103.82 576.68 104.60 576.54 105.00 C 574.59 105.49 572.36 105.19 570.62 106.29 C 569.98 120.99 570.85 135.73 570.24 150.44 C 565.01 147.05 561.67 141.63 558.37 136.51 C 562.41 139.41 564.57 144.11 568.20 147.44 C 568.94 133.73 568.09 119.97 568.59 106.26 Z" />
<path fill="#121212" d=" M 615.54 103.32 C 617.71 103.40 619.90 103.46 622.08 103.59 C 625.18 112.01 629.71 119.83 632.97 128.20 C 638.10 138.57 642.14 149.44 647.34 159.78 C 648.13 161.21 648.26 162.86 648.53 164.44 C 645.92 164.54 643.32 164.52 640.73 164.49 C 639.79 161.77 638.43 159.23 637.58 156.49 C 636.37 153.30 635.58 148.87 631.87 147.76 C 625.25 147.18 618.60 147.74 611.97 147.51 C 608.79 147.70 604.88 146.75 602.55 149.52 C 599.87 154.43 598.38 159.91 595.28 164.59 C 593.24 164.54 591.20 164.51 589.17 164.48 C 588.73 159.19 592.23 155.00 594.10 150.36 C 598.62 140.34 602.83 130.18 607.48 120.22 C 610.35 114.67 612.30 108.69 615.54 103.32 Z" />
<path fill="#121212" d=" M 763.21 124.34 C 766.30 117.29 769.27 110.20 772.70 103.32 C 774.72 103.56 776.97 102.97 778.86 103.88 C 780.82 106.22 781.72 109.23 783.01 111.96 C 788.38 123.39 793.39 134.98 798.46 146.55 C 800.80 152.54 804.83 157.96 805.84 164.41 C 803.16 164.55 800.49 164.54 797.82 164.45 C 796.56 160.08 794.19 156.13 792.85 151.78 C 791.94 149.77 790.64 147.26 788.02 147.60 C 779.68 147.51 771.32 147.41 762.99 147.66 C 760.67 147.46 759.56 149.77 758.51 151.41 C 756.14 155.62 754.62 160.25 752.20 164.43 C 750.42 164.34 748.65 164.26 746.89 164.18 C 746.86 162.79 746.86 161.40 746.88 160.01 C 752.46 148.18 757.36 136.04 763.21 124.34 Z" />
<path fill="#121212" d=" M 441.39 106.12 C 443.77 105.75 446.17 105.47 448.55 104.99 C 449.18 118.33 448.69 131.72 448.77 145.09 C 449.00 150.17 446.99 155.11 444.25 159.30 C 441.73 161.33 439.02 163.38 435.98 164.49 C 431.68 164.78 427.34 164.77 423.05 164.44 C 418.34 162.60 414.54 159.20 411.38 155.34 C 410.91 152.27 414.85 151.25 416.66 149.51 C 418.80 151.89 420.98 154.25 423.42 156.33 C 428.31 160.15 436.86 158.39 439.58 152.63 C 441.37 149.06 441.35 144.92 441.47 141.01 C 441.43 129.38 441.48 117.75 441.39 106.12 Z" />
<path fill="#121212" d=" M 526.59 104.46 C 529.34 104.71 532.82 103.82 534.87 106.20 C 542.32 116.59 550.86 126.15 558.37 136.51 C 561.67 141.63 565.01 147.05 570.24 150.44 C 570.85 135.73 569.98 120.99 570.62 106.29 C 572.36 105.19 574.59 105.49 576.54 105.00 C 577.16 124.79 576.71 144.63 576.77 164.44 C 574.83 164.48 572.90 164.53 570.98 164.56 C 561.16 153.43 552.86 141.10 543.23 129.81 C 539.91 125.80 537.35 121.16 533.48 117.61 C 532.93 133.20 533.41 148.82 533.23 164.42 C 530.99 164.51 528.76 164.55 526.53 164.59 C 526.36 144.55 526.24 124.50 526.59 104.46 Z" />
<path fill="#121212" d=" M 683.75 111.99 C 683.66 109.43 683.79 106.87 684.44 104.38 C 686.27 104.49 688.13 104.47 689.97 104.69 C 693.36 106.39 694.89 110.15 697.16 112.99 C 703.06 119.47 707.96 126.77 713.40 133.63 C 718.32 138.91 721.76 145.52 727.41 150.12 C 727.59 135.17 727.42 120.21 727.48 105.26 C 729.72 105.27 731.97 105.31 734.22 105.41 C 734.23 125.07 734.26 144.74 734.20 164.40 C 731.75 164.27 728.59 165.54 727.00 162.99 C 719.60 154.32 712.89 145.09 705.72 136.24 C 702.95 131.75 698.87 128.26 696.16 123.74 C 694.68 121.38 692.52 119.59 690.54 117.68 C 690.11 133.29 690.51 148.91 690.34 164.52 C 688.16 164.53 686.00 164.52 683.84 164.49 C 683.67 146.99 683.84 129.49 683.75 111.99 Z" />
<path fill="#8e98a4" d=" M 853.88 105.11 C 856.40 106.64 858.79 108.90 861.93 108.89 C 869.06 109.35 876.21 108.94 883.36 109.04 C 883.16 110.51 882.97 111.98 882.77 113.45 C 872.06 113.49 861.35 113.47 850.64 113.44 C 850.35 112.97 849.77 112.02 849.48 111.55 C 857.96 111.98 866.46 111.68 874.95 111.82 C 877.25 111.71 879.76 112.08 881.84 110.87 C 881.75 110.63 881.57 110.16 881.48 109.92 C 874.65 109.21 867.79 109.91 860.96 109.69 C 858.02 109.69 854.77 108.07 853.88 105.11 Z" />
<path fill="#121212" d=" M 660.73 105.34 C 663.03 105.29 665.32 105.26 667.63 105.27 C 667.57 125.02 667.77 144.77 667.53 164.52 C 665.26 164.53 663.00 164.53 660.75 164.51 C 660.71 144.79 660.74 125.06 660.73 105.34 Z" />
<path fill="#fefefe" d=" M 775.03 114.20 C 778.82 119.14 780.74 125.15 783.26 130.78 C 784.79 134.25 786.95 137.45 787.67 141.23 C 779.65 141.52 771.62 141.43 763.59 141.28 C 767.24 132.18 771.79 123.44 775.03 114.20 Z" />
<path fill="#fefefe" d=" M 473.93 141.23 C 477.62 132.45 481.77 123.88 485.44 115.10 C 486.30 115.65 487.13 116.25 487.94 116.90 C 490.80 123.41 493.20 130.15 496.43 136.50 C 497.21 137.99 497.41 139.67 497.74 141.30 C 489.81 141.43 481.86 141.52 473.93 141.23 Z" />
<path fill="#fefefe" d=" M 605.88 141.22 C 610.18 132.62 613.83 123.71 617.83 114.96 C 618.85 115.98 620.28 116.77 620.68 118.27 C 623.09 124.47 625.66 130.63 628.71 136.55 C 629.60 137.99 629.58 139.71 629.84 141.34 C 621.85 141.36 613.85 141.56 605.88 141.22 Z" />
<path fill="#121212" d=" M 854.50 118.44 C 858.65 117.24 863.06 117.44 867.34 117.41 C 867.59 121.79 867.52 126.19 867.39 130.57 C 869.47 130.72 871.58 130.90 873.68 130.67 C 875.41 129.84 876.93 128.62 878.48 127.47 C 879.91 124.50 878.90 121.21 878.28 118.19 C 879.64 118.23 881.01 118.29 882.39 118.36 C 882.98 121.17 883.57 124.06 883.13 126.94 C 881.08 131.40 876.52 133.83 871.91 134.74 C 865.94 134.86 859.69 135.57 854.22 132.64 C 849.97 131.49 849.07 126.83 849.75 123.02 C 850.85 121.07 852.72 119.72 854.50 118.44 Z" />
<path fill="#fefefe" d=" M 853.82 123.32 C 856.69 121.05 860.44 119.99 864.12 120.19 C 864.34 123.93 864.33 127.67 864.21 131.41 C 861.11 130.78 857.36 131.40 855.05 128.81 C 853.03 127.77 853.22 125.16 853.82 123.32 Z" />
<path fill="#121212" d=" M 849.77 144.01 C 851.89 141.22 855.24 138.88 858.90 139.19 C 866.88 139.20 874.86 139.11 882.85 139.29 C 882.80 140.42 882.77 141.55 882.75 142.68 C 873.42 143.87 863.99 142.79 854.62 143.38 C 853.54 145.21 851.58 147.02 852.43 149.36 C 854.68 151.57 857.54 153.85 860.88 153.66 C 868.26 153.80 875.66 153.34 883.02 153.89 C 883.12 154.47 883.33 155.64 883.43 156.23 C 872.18 156.46 860.92 156.35 849.67 156.28 C 851.80 152.30 848.85 148.17 849.77 144.01 Z" />
<path fill="#8e98a4" d=" M 470.57 149.52 C 471.63 148.12 473.19 147.41 474.96 147.56 C 483.64 147.49 492.33 147.50 501.01 147.66 C 501.76 148.97 502.53 150.28 503.20 151.64 C 500.99 150.51 498.59 149.66 496.07 149.70 C 487.57 149.51 479.06 149.99 470.57 149.52 Z" />
<path fill="#8e98a4" d=" M 602.55 149.52 C 604.88 146.75 608.79 147.70 611.97 147.51 C 618.60 147.74 625.25 147.18 631.87 147.76 C 635.58 148.87 636.37 153.30 637.58 156.49 C 635.92 154.33 634.45 152.04 632.93 149.79 C 622.81 149.42 612.67 150.03 602.55 149.52 Z" />
<path fill="#8e98a4" d=" M 758.51 151.41 C 759.56 149.77 760.67 147.46 762.99 147.66 C 771.32 147.41 779.68 147.51 788.02 147.60 C 790.64 147.26 791.94 149.77 792.85 151.78 C 790.77 150.62 788.52 149.59 786.08 149.69 C 779.03 149.63 771.99 149.72 764.94 149.66 C 763.46 149.83 761.75 149.47 760.50 150.41 C 757.55 154.85 756.06 160.04 753.53 164.70 C 750.54 164.94 747.53 164.90 744.62 164.19 C 745.34 162.78 746.09 161.39 746.88 160.01 C 746.86 161.40 746.86 162.79 746.89 164.18 C 748.65 164.26 750.42 164.34 752.20 164.43 C 754.62 160.25 756.14 155.62 758.51 151.41 Z" />
<path fill="#121212" d=" M 850.01 160.40 C 860.67 160.00 871.35 160.37 882.02 160.19 C 884.79 159.95 886.97 161.89 889.39 162.89 C 889.86 167.58 889.82 172.30 889.49 177.00 C 888.17 176.85 886.85 176.70 885.54 176.58 C 887.82 174.28 887.61 170.97 887.44 167.97 C 886.76 166.17 884.78 165.25 883.31 164.17 C 882.22 163.52 881.15 162.86 880.01 162.35 C 878.54 163.18 877.38 164.45 876.16 165.58 C 871.06 164.57 865.85 161.76 860.62 163.59 C 858.25 164.20 856.09 165.44 854.29 167.06 C 853.44 167.98 852.69 168.97 851.92 169.94 C 854.11 171.81 855.89 174.79 859.06 174.93 C 863.59 175.50 868.25 175.58 872.74 174.64 C 874.38 173.86 876.47 172.96 876.94 171.01 C 877.53 169.43 878.13 167.85 878.79 166.29 C 879.53 168.69 880.07 171.15 880.46 173.64 C 878.35 175.43 876.26 177.82 873.18 177.29 C 871.85 177.06 870.66 177.75 869.86 178.74 C 863.35 180.52 855.83 178.60 850.47 174.46 C 849.33 171.58 849.08 168.01 851.18 165.50 C 850.40 163.90 850.18 162.14 850.01 160.40 Z" />
<path fill="#08438a" d=" M 860.62 163.59 C 865.85 161.76 871.06 164.57 876.16 165.58 C 877.38 164.45 878.54 163.18 880.01 162.35 C 881.15 162.86 882.22 163.52 883.31 164.17 C 881.83 164.37 880.36 164.56 878.89 164.74 C 880.90 167.28 882.18 170.56 880.46 173.64 C 880.07 171.15 879.53 168.69 878.79 166.29 C 878.13 167.85 877.53 169.43 876.94 171.01 C 876.89 169.76 876.85 168.51 876.81 167.27 C 871.56 163.89 865.13 164.07 859.18 164.80 C 857.40 165.19 855.81 166.11 854.29 167.06 C 856.09 165.44 858.25 164.20 860.62 163.59 Z" />
<path fill="#fefefe" d=" M 854.29 167.06 C 855.81 166.11 857.40 165.19 859.18 164.80 C 865.13 164.07 871.56 163.89 876.81 167.27 C 876.85 168.51 876.89 169.76 876.94 171.01 C 876.47 172.96 874.38 173.86 872.74 174.64 C 868.25 175.58 863.59 175.50 859.06 174.93 C 855.89 174.79 854.11 171.81 851.92 169.94 C 852.69 168.97 853.44 167.98 854.29 167.06 Z" />
<path fill="#08438a" d=" M 869.86 178.74 C 870.66 177.75 871.85 177.06 873.18 177.29 C 873.93 179.07 870.72 180.34 869.86 178.74 Z" />
<path fill="#8e98a4" d=" M 839.68 183.54 C 840.90 183.54 842.13 183.53 843.37 183.52 C 843.51 185.02 843.65 186.51 843.80 188.01 C 841.89 188.25 839.92 188.33 838.22 187.33 C 838.69 186.06 839.18 184.80 839.68 183.54 Z" />
<path fill="#8e98a4" d=" M 211.53 186.65 C 217.86 184.26 224.99 186.09 230.62 189.42 C 235.22 192.56 239.88 196.58 241.15 202.28 C 237.41 197.26 233.38 191.91 227.36 189.53 C 216.75 184.66 203.05 189.26 197.20 199.27 C 193.48 205.25 193.15 212.64 194.46 219.40 C 191.43 215.31 192.61 209.75 193.08 205.05 C 195.43 196.26 202.97 189.36 211.53 186.65 Z" />
<path fill="#121212" d=" M 850.36 185.53 C 861.11 185.13 871.93 185.25 882.69 185.47 C 882.97 185.94 883.53 186.86 883.81 187.32 C 872.26 187.21 860.71 187.21 849.16 187.33 C 849.46 186.88 850.06 185.98 850.36 185.53 Z" />
<path fill="#121212" d=" M 840.44 186.05 C 841.61 185.12 842.29 185.37 842.46 186.78 C 841.27 187.69 840.60 187.45 840.44 186.05 Z" />
<path fill="#8e98a4" d=" M 849.16 187.33 C 860.71 187.21 872.26 187.21 883.81 187.32 C 881.98 188.06 880.05 188.51 878.08 188.41 C 871.72 188.34 865.35 188.29 858.99 188.37 C 855.69 188.37 852.25 188.74 849.16 187.33 Z" />
<path fill="#fefefe" d=" M 197.20 199.27 C 203.05 189.26 216.75 184.66 227.36 189.53 C 233.38 191.91 237.41 197.26 241.15 202.28 C 241.87 210.43 243.37 219.95 237.68 226.77 C 229.73 238.10 211.66 239.71 201.57 230.38 C 198.41 227.39 195.26 223.81 194.46 219.40 C 193.15 212.64 193.48 205.25 197.20 199.27 Z" />
<path fill="#121212" d=" M 862.93 199.89 C 866.93 195.80 871.56 190.83 877.87 191.69 C 879.40 193.33 881.10 194.81 882.56 196.53 C 884.05 199.66 882.94 203.22 882.23 206.41 C 881.31 206.45 879.48 206.51 878.56 206.55 C 879.08 203.12 879.47 199.65 878.73 196.22 C 876.38 196.25 873.91 195.74 871.69 196.67 C 867.86 199.60 865.02 203.67 860.98 206.36 C 858.26 206.72 855.52 206.52 852.80 206.52 C 851.83 205.30 850.77 204.14 849.91 202.85 C 849.51 199.85 849.77 196.82 849.79 193.80 C 851.10 193.82 852.42 193.83 853.75 193.85 C 853.46 196.65 853.33 199.47 853.62 202.28 C 856.87 202.89 860.63 202.58 862.93 199.89 Z" />
<path fill="#8e98a4" d=" M 855.89 210.85 C 859.79 208.99 864.20 207.91 868.40 209.52 C 868.59 214.12 868.55 218.73 868.79 223.34 C 872.74 223.23 876.02 221.02 879.26 219.04 C 876.93 223.62 871.27 225.11 866.62 223.55 C 866.52 219.24 866.54 214.92 866.46 210.61 C 862.93 210.66 859.41 210.76 855.89 210.85 Z" />
<path fill="#121212" d=" M 849.66 219.00 C 848.75 215.07 852.53 211.79 855.89 210.85 C 859.41 210.76 862.93 210.66 866.46 210.61 C 866.54 214.92 866.52 219.24 866.62 223.55 C 871.27 225.11 876.93 223.62 879.26 219.04 C 879.34 216.33 878.87 213.66 878.35 211.03 C 879.70 210.81 881.08 210.72 882.26 211.61 C 883.80 215.24 884.03 220.05 880.88 222.89 C 875.54 228.56 867.15 227.77 860.07 227.40 C 855.86 226.02 849.41 224.70 849.66 219.00 Z" />
<path fill="#fefefe" d=" M 852.26 218.06 C 855.04 214.43 859.67 212.90 864.11 212.66 C 864.33 216.32 864.33 219.99 864.22 223.65 C 861.99 223.55 859.75 223.62 857.55 223.29 C 855.49 221.87 853.85 219.96 852.26 218.06 Z" />
<path fill="#8e98a4" d=" M 264.88 217.04 C 268.44 218.56 271.89 220.84 275.91 220.83 C 289.95 220.93 303.99 221.34 318.03 221.40 C 326.11 221.13 333.93 223.83 342.02 223.32 C 349.45 222.95 356.65 224.98 364.02 225.48 C 368.14 225.59 371.96 228.57 373.48 232.28 C 373.81 238.56 374.97 245.79 370.81 251.14 C 371.50 245.78 373.34 240.50 372.84 235.04 C 372.65 231.68 369.99 228.84 366.82 227.96 C 360.73 226.10 354.32 225.82 348.01 225.38 C 337.69 224.38 327.33 223.96 316.97 223.56 C 308.09 223.15 299.10 224.29 290.32 222.53 C 284.32 221.30 278.19 221.97 272.15 221.42 C 269.12 221.29 266.78 219.19 264.88 217.04 Z" />
<path fill="#8e98a4" d=" M 64.92 230.64 C 67.97 238.34 67.07 247.37 71.63 254.43 C 76.92 258.77 84.05 255.09 90.06 254.76 C 86.22 258.92 79.99 257.36 74.97 257.57 C 72.08 257.85 70.17 255.43 69.13 253.06 C 66.01 246.05 64.34 238.33 64.92 230.64 Z" />
<path fill="#121212" d=" M 841.48 238.48 C 844.47 234.43 849.59 233.43 854.07 231.89 C 858.67 231.60 863.32 231.58 867.92 231.90 C 872.45 233.43 877.59 234.62 880.65 238.62 C 882.47 242.37 883.48 246.52 883.28 250.70 C 876.22 251.61 869.09 251.02 862.00 251.19 C 854.41 251.03 846.79 251.56 839.23 250.83 C 839.55 246.70 837.87 241.57 841.48 238.48 Z" />
<path fill="#fefefe" d=" M 843.89 240.92 C 850.12 235.11 859.08 235.03 867.07 235.88 C 870.92 236.06 874.59 238.06 877.31 240.71 C 879.59 242.73 878.69 245.92 878.75 248.59 C 866.78 248.50 854.81 248.55 842.84 248.56 C 842.42 245.97 842.75 243.29 843.89 240.92 Z" />
<path fill="#121212" d=" M 482.85 249.25 C 485.31 249.25 487.77 249.31 490.23 249.51 C 498.17 268.71 507.23 287.44 515.70 306.43 C 515.98 307.51 516.21 308.60 516.40 309.71 C 513.79 309.81 511.18 309.80 508.57 309.73 C 507.27 305.95 505.20 302.50 503.85 298.73 C 503.04 296.99 502.67 294.10 500.10 294.41 C 490.32 294.29 480.55 294.30 470.77 294.44 C 468.01 299.39 466.21 304.80 463.59 309.82 C 460.99 309.84 458.40 309.75 455.82 309.52 C 459.31 300.14 464.34 291.43 467.92 282.09 C 473.01 271.19 477.61 260.08 482.85 249.25 Z" />
<path fill="#121212" d=" M 663.52 249.37 C 667.88 248.14 672.54 248.83 677.02 248.83 C 683.40 250.17 689.10 253.78 694.02 257.96 C 696.90 261.29 698.64 265.46 700.56 269.38 C 701.80 276.06 701.74 282.99 700.62 289.69 C 699.42 292.56 697.81 295.26 696.37 298.01 C 693.25 302.70 688.43 305.98 683.46 308.47 C 680.02 310.53 675.84 310.18 672.00 310.33 C 667.32 310.21 662.21 310.77 658.14 308.00 C 650.37 304.27 644.16 297.33 642.06 288.91 C 641.34 282.69 641.25 276.35 642.15 270.15 C 643.77 265.55 646.03 261.01 649.45 257.46 C 653.56 253.89 658.39 251.18 663.52 249.37 Z" />
<path fill="#121212" d=" M 410.76 250.50 C 421.15 250.53 431.58 250.10 441.96 250.76 C 446.46 252.46 451.43 254.88 453.48 259.57 C 456.27 263.86 455.11 269.17 455.20 273.98 C 453.25 282.30 445.12 287.71 437.01 288.79 C 430.58 289.03 424.12 288.37 417.73 289.33 C 417.57 296.15 417.72 302.99 417.64 309.82 C 415.44 309.81 413.23 309.78 411.04 309.71 C 410.37 290.00 410.92 270.23 410.76 250.50 Z" />
<path fill="#121212" d=" M 526.44 250.40 C 529.00 250.40 531.57 250.44 534.14 250.55 C 541.20 260.51 549.15 269.77 556.52 279.48 C 560.94 284.33 563.66 290.95 569.53 294.30 C 569.63 279.94 569.46 265.57 569.60 251.22 C 571.40 249.55 574.52 250.83 576.84 250.58 C 576.76 270.30 576.91 290.01 576.77 309.73 C 574.67 309.75 572.58 309.78 570.49 309.73 C 561.69 298.78 553.19 287.62 544.50 276.59 C 540.36 272.53 538.00 266.98 533.39 263.35 C 533.03 278.79 533.38 294.25 533.22 309.69 C 530.97 309.78 528.73 309.82 526.50 309.86 C 526.30 290.04 526.43 270.22 526.44 250.40 Z" />
<path fill="#121212" d=" M 589.38 250.43 C 605.01 250.52 620.63 250.24 636.25 250.58 C 636.18 252.79 636.01 255.00 635.80 257.21 C 629.43 257.30 623.06 257.21 616.70 257.26 C 616.68 274.74 616.79 292.21 616.64 309.69 C 613.93 309.79 611.23 309.80 608.54 309.69 C 608.55 292.20 608.63 274.71 608.50 257.23 C 602.18 257.27 595.86 257.25 589.54 257.23 C 589.45 254.96 589.40 252.70 589.38 250.43 Z" />
<path fill="#121212" d=" M 736.29 250.63 C 739.10 250.45 741.93 250.41 744.75 250.53 C 744.67 265.37 744.72 280.21 744.66 295.04 C 744.32 294.49 743.99 293.93 743.67 293.37 C 743.51 295.82 743.52 298.35 742.69 300.70 C 739.65 305.84 734.37 310.47 728.07 310.23 C 724.13 310.08 719.84 310.68 716.25 308.75 C 712.09 307.03 709.43 303.19 706.48 299.99 C 708.28 298.17 710.22 296.48 712.08 294.72 C 715.16 297.80 717.91 301.48 721.97 303.34 C 724.24 303.56 726.57 303.63 728.83 303.25 C 732.73 300.87 736.60 297.00 736.27 292.07 C 736.41 278.26 736.35 264.44 736.29 250.63 Z" />
<path fill="#121212" d=" M 773.15 261.09 C 774.94 257.41 776.27 253.49 778.56 250.06 C 781.13 250.14 783.71 250.20 786.29 250.32 C 794.26 268.68 802.53 286.91 810.95 305.07 C 811.77 306.47 811.77 308.14 812.01 309.71 C 809.37 309.83 806.73 309.81 804.11 309.67 C 802.72 304.71 799.91 300.34 798.23 295.50 C 797.90 295.25 797.22 294.75 796.88 294.50 C 786.82 294.17 776.73 294.37 766.66 294.43 C 764.18 299.53 761.75 304.64 759.37 309.79 C 756.96 309.84 754.54 309.80 752.16 309.52 C 753.70 302.99 756.95 297.05 759.80 291.02 C 764.25 281.05 768.89 271.15 773.15 261.09 Z" />
<path fill="#fefefe" d=" M 648.44 282.89 C 646.76 269.87 657.13 257.08 669.97 255.28 C 674.56 254.79 678.81 257.10 682.74 259.20 C 687.32 262.70 692.24 267.29 692.49 273.46 C 692.80 277.95 692.75 282.47 692.32 286.95 C 691.66 294.18 685.43 299.11 679.41 302.20 C 676.28 304.21 672.41 303.29 668.91 303.49 C 664.80 303.82 661.49 300.91 658.22 298.86 C 652.72 295.33 650.14 288.90 648.44 282.89 Z" />
<path fill="#fefefe" d=" M 418.32 257.50 C 421.07 256.33 424.10 256.86 427.00 256.75 C 432.11 256.73 437.60 256.32 442.15 259.10 C 447.99 261.57 448.59 269.37 446.64 274.62 C 444.53 279.15 439.23 280.41 435.01 282.18 C 430.05 282.57 425.05 282.34 420.08 282.33 C 418.27 282.59 418.29 280.16 417.75 279.04 C 417.58 272.07 417.61 265.09 417.72 258.12 L 418.32 257.50 Z" />
<path fill="#fefefe" d=" M 484.94 261.12 C 485.99 261.26 487.04 261.41 488.10 261.56 C 490.61 270.17 494.70 278.29 498.55 286.38 C 495.73 286.99 492.88 287.40 489.99 287.26 C 484.62 287.07 479.17 287.73 473.87 286.55 C 477.42 278.01 481.92 269.88 484.94 261.12 Z" />
<path fill="#fefefe" d=" M 769.75 286.60 C 773.58 278.07 777.17 269.44 781.23 261.02 C 781.74 261.13 782.76 261.36 783.27 261.47 C 786.62 269.91 790.73 278.02 794.16 286.42 C 786.13 287.73 777.80 287.58 769.75 286.60 Z" />
<path fill="#121212" d=" M 839.11 269.43 C 839.21 268.02 839.33 266.61 839.47 265.20 C 842.57 267.67 846.52 268.29 850.14 269.67 C 854.28 270.86 858.52 273.56 862.91 271.72 C 868.02 269.74 873.40 268.42 878.35 266.03 C 879.85 265.22 881.64 265.60 883.29 265.47 C 882.95 266.75 882.62 268.03 882.31 269.31 C 876.42 270.33 870.95 272.81 865.42 274.96 C 870.01 277.82 875.33 279.00 880.44 280.57 C 881.97 281.39 882.82 283.02 883.79 284.41 C 874.08 285.50 866.13 276.25 856.26 278.42 C 850.70 280.56 845.13 282.66 839.56 284.77 C 839.36 283.37 839.20 281.98 839.05 280.58 C 844.17 278.75 849.56 277.64 854.33 274.93 C 849.23 273.17 844.11 271.45 839.11 269.43 Z" />
<path fill="#8e98a4" d=" M 692.49 273.46 C 692.97 273.70 693.95 274.16 694.44 274.39 C 694.98 278.38 694.63 282.42 694.42 286.42 C 693.90 286.56 692.84 286.82 692.32 286.95 C 692.75 282.47 692.80 277.95 692.49 273.46 Z" />
<path fill="#121212" d=" M 839.18 286.78 C 849.12 286.69 859.06 286.80 869.01 286.73 C 871.49 286.76 874.07 286.52 876.45 287.45 C 879.30 289.63 883.09 292.06 883.07 296.10 C 883.77 301.12 878.96 305.61 874.06 305.32 C 864.38 305.48 854.69 305.27 845.01 305.41 C 843.39 305.13 841.08 305.84 840.04 304.27 C 851.06 302.53 862.43 304.61 873.53 303.28 C 877.48 302.74 881.34 298.79 879.48 294.70 C 877.63 291.21 873.69 290.31 870.04 290.72 C 859.83 290.73 849.62 290.88 839.42 290.63 C 839.33 289.35 839.25 288.06 839.18 286.78 Z" />
<path fill="#8e98a4" d=" M 876.45 287.45 C 878.99 288.16 881.99 288.91 883.15 291.60 C 883.88 294.75 883.92 298.16 883.20 301.33 C 880.96 304.68 877.09 306.72 873.04 306.50 C 861.69 306.44 850.32 306.87 839.00 306.23 C 838.99 305.37 838.97 303.64 838.96 302.78 C 849.32 302.29 859.70 302.76 870.07 302.59 C 872.57 302.60 875.04 301.72 877.06 300.24 C 878.61 298.83 878.75 296.56 879.48 294.70 C 881.34 298.79 877.48 302.74 873.53 303.28 C 862.43 304.61 851.06 302.53 840.04 304.27 C 841.08 305.84 843.39 305.13 845.01 305.41 C 854.69 305.27 864.38 305.48 874.06 305.32 C 878.96 305.61 883.77 301.12 883.07 296.10 C 883.09 292.06 879.30 289.63 876.45 287.45 Z" />
</svg>
